# xmcd
#
# Track frame offsets:
#	150
#	18545
#	37552
#	58347
#	82362
#	103005
#	124468
#	145291
#	164736
#	183617
#
# Disc length: 2776 seconds
#
# Revision: 10
# Processed by: cddbd v1.5.2PL0 Copyright (c) Steve Scherf et al.
# Submitted via: Jack! The Knife 17 Overdose
#
DISCID=960ad60a
DTITLE=Pooh - Uomini Soli
DYEAR=1990
DGENRE=Pop
TTITLE0=Uomini Soli
TTITLE1=Napoli Per Noi
TTITLE2=L'altra Donna
TTITLE3=Città Proibita
TTITLE4=Donne Italiane
TTITLE5=Non Solo Musica
TTITLE6=La Luna Ha Vent'anni
TTITLE7=Davanti Al Mare
TTITLE8=Giulia Si Sposa
TTITLE9=Tu Vivrai
EXTD=Pooh
EXTT0=Facchinetti, Negrini
EXTT1=Canzian, D'Orazio
EXTT2=Battaglia, Negrini
EXTT3=Facchinetti, Negrini
EXTT4=Facchinetti, Negrini
EXTT5=Facchinetti, D'Orazio
EXTT6=Canzian, Negrini
EXTT7=Battaglia, Negrini
EXTT8=Facchinetti, Negrini
EXTT9=Facchinetti, Negrini
PLAYORDER=
